<?xml version="1.0" encoding="UTF-8" standalone="no"?>
<svg
   xmlns:dc="http://purl.org/dc/elements/1.1/"
   xmlns:cc="http://creativecommons.org/ns#"
   xmlns:rdf="http://www.w3.org/1999/02/22-rdf-syntax-ns#"
   xmlns:svg="http://www.w3.org/2000/svg"
   xmlns="http://www.w3.org/2000/svg"
   xmlns:sodipodi="http://sodipodi.sourceforge.net/DTD/sodipodi-0.dtd"
   xmlns:inkscape="http://www.inkscape.org/namespaces/inkscape"
   width="1275"
   height="527"
   viewBox="0 0 1275 527"
   fill="none"
   version="1.1"
   id="svg22"
   sodipodi:docname="logo-nav2.svg"
   inkscape:version="0.92.5 (2060ec1f9f, 2020-04-08)">
  <metadata
     id="metadata28">
    <rdf:RDF>
      <cc:Work
         rdf:about="">
        <dc:format>image/svg+xml</dc:format>
        <dc:type
           rdf:resource="http://purl.org/dc/dcmitype/StillImage" />
        <dc:title></dc:title>
      </cc:Work>
    </rdf:RDF>
  </metadata>
  <defs
     id="defs26" />
  <sodipodi:namedview
     pagecolor="#ffffff"
     bordercolor="#666666"
     borderopacity="1"
     objecttolerance="10"
     gridtolerance="10"
     guidetolerance="10"
     inkscape:pageopacity="0"
     inkscape:pageshadow="2"
     inkscape:window-width="1320"
     inkscape:window-height="704"
     id="namedview24"
     showgrid="false"
     inkscape:zoom="0.37411765"
     inkscape:cx="772.80226"
     inkscape:cy="563.51924"
     inkscape:window-x="46"
     inkscape:window-y="27"
     inkscape:window-maximized="1"
     inkscape:current-layer="svg22" />
  <g
     id="g4554"
     transform="translate(20.056604,-26.056604)">
    <path
       style="clip-rule:evenodd;fill:#5ae4a7;fill-rule:evenodd;stroke-width:0.59292406"
       inkscape:connector-curvature="0"
       id="path2"
       d="m 371.86762,330.60503 c -18.37769,47.05564 -64.15557,80.39102 -117.71856,80.39102 -53.56357,0 -99.34087,-33.33479 -117.71849,-80.39043 l 34.41029,-38.77249 h 166.61641 z m 8.4124,-38.7719 h -42.82275 l -83.30821,-93.86818 -83.3082,93.86818 h -42.82329 c -0.13276,-2.37229 -0.19999,-4.76237 -0.19999,-7.16845 0,-69.77116 56.56033,-126.33137 126.33148,-126.33137 69.77056,0 126.33137,56.56021 126.33137,126.33137 0,2.40608 -0.0676,4.79616 -0.20041,7.16845 z m 29.76361,5.9e-4 c 0.10732,-2.37644 0.16186,-4.76652 0.16186,-7.16904 0,-86.18745 -69.86898,-156.05636 -156.05643,-156.05636 -86.18744,0 -156.056486,69.86891 -156.056486,156.05636 0,2.40252 0.0542,4.7926 0.16169,7.16845 H 78.276224 V 396.13144 L 114.79542,354.9831 c 25.71678,50.86399 78.46271,85.73801 139.35364,85.73801 60.89093,0 113.63687,-34.87402 139.35376,-85.73801 l 36.51938,41.14834 V 291.83372 Z" />
    <path
       style="fill:#1a2e35;stroke-width:0.59292406"
       inkscape:connector-curvature="0"
       id="path4"
       d="m 547.37196,270.52759 c -3.75203,4.49318 -9.05573,7.99024 -15.91112,10.49179 -6.85598,2.4553 -14.45252,3.68265 -22.79082,3.68265 -8.75511,0 -16.44415,-1.89914 -23.0683,-5.69741 -6.5779,-3.84511 -11.67349,-9.40377 -15.28618,-16.67599 -3.56703,-7.2728 -5.39679,-15.81921 -5.48929,-25.63981 v -6.87851 c 0,-10.09809 1.69043,-18.83009 5.07188,-26.19539 3.42828,-7.41155 8.33829,-13.06271 14.7306,-16.95383 6.43916,-3.93738 13.96633,-5.90606 22.58211,-5.90606 11.99722,0 21.37788,2.87194 28.14077,8.61607 6.76289,5.69741 10.76987,14.01258 12.02035,24.94432 h -20.28868 c -0.92674,-5.7905 -2.98774,-10.02872 -6.1842,-12.71526 -3.14961,-2.68713 -7.50404,-4.0301 -13.06271,-4.0301 -7.08722,0 -12.48401,2.66341 -16.18979,7.99024 -3.70577,5.32743 -5.58179,13.2483 -5.62803,23.76381 v 6.46168 c 0,10.60801 2.01475,18.62138 6.04486,24.0413 4.0301,5.41932 9.93622,8.12958 17.71835,8.12958 7.82837,0 13.41016,-1.6679 16.74536,-5.00309 v -17.44027 h -18.96883 v -15.35555 h 39.81367 z" />
    <path
       style="fill:#1a2e35;stroke-width:0.59292406"
       inkscape:connector-curvature="0"
       id="path6"
       d="m 605.25202,226.96131 c -2.73338,-0.37058 -5.14184,-0.55557 -7.22656,-0.55557 -7.59654,0 -12.57651,2.57091 -14.93872,7.71216 v 49.19432 h -20.08056 v -75.181 h 18.96883 l 0.55557,8.96383 c 4.0301,-6.90223 9.61189,-10.35305 16.74595,-10.35305 2.22347,0 4.3076,0.30061 6.25298,0.90302 z" />
    <path
       style="fill:#1a2e35;stroke-width:0.59292406"
       inkscape:connector-curvature="0"
       id="path8"
       d="m 656.46109,283.31222 c -0.92674,-1.80664 -1.59793,-4.05323 -2.01534,-6.73977 -4.86376,5.41992 -11.1867,8.12958 -18.96883,8.12958 -7.3653,0 -13.47954,-2.13097 -18.34329,-6.39231 -4.81751,-4.26194 -7.22656,-9.63502 -7.22656,-16.12042 0,-7.96712 2.94149,-14.08195 8.82449,-18.3433 5.92924,-4.26193 14.47565,-6.41603 25.63922,-6.46228 h 9.24131 v -4.30759 c 0,-3.47453 -0.90302,-6.25357 -2.70966,-8.33829 -1.76039,-2.08413 -4.56255,-3.12649 -8.40766,-3.12649 -3.38145,0 -6.04486,0.81053 -7.99025,2.43158 -1.89973,1.62165 -2.849,3.84512 -2.849,6.6704 h -20.08056 c 0,-4.35384 1.34298,-8.38395 4.03011,-12.08972 2.68654,-3.70578 6.48481,-6.60103 11.39481,-8.68575 4.9106,-2.13097 10.42242,-3.19586 16.53725,-3.19586 9.26444,0 16.60662,2.33909 22.02594,7.01785 5.46498,4.63192 8.19836,11.16358 8.19836,19.59377 v 32.5877 c 0.0474,7.13406 1.04355,12.53026 2.98834,16.18979 v 1.18111 z m -16.60661,-13.96574 c 2.96462,0 5.6974,-0.64866 8.19895,-1.94597 2.50155,-1.34298 4.35444,-3.12649 5.55866,-5.34996 v -12.92396 h -7.50404 c -10.05184,0 -15.40239,3.47394 -16.05046,10.42242 l -0.07,1.1811 c 0,2.50155 0.88049,4.56314 2.64088,6.1842 1.7598,1.62105 4.16885,2.43217 7.22597,2.43217 z" />
    <path
       style="fill:#1a2e35;stroke-width:0.59292406"
       inkscape:connector-curvature="0"
       id="path10"
       d="m 707.67076,208.13122 0.62257,8.68575 c 5.37782,-6.71665 12.57592,-10.07497 21.61208,-10.07497 7.9689,0 13.89814,2.33909 17.78773,7.01785 3.88958,4.67817 5.8818,11.6729 5.97667,20.98358 v 48.56879 h -20.08234 v -48.08259 c 0,-4.26134 -0.92496,-7.34158 -2.78081,-9.24072 -1.84992,-1.94598 -4.93313,-2.91837 -9.23776,-2.91837 -5.65056,0 -9.88997,2.40845 -12.71822,7.22596 v 53.01572 h -20.08234 v -75.181 z" />
    <path
       style="fill:#1a2e35;stroke-width:0.59292406"
       inkscape:connector-curvature="0"
       id="path12"
       d="m 765.82476,245.16585 c 0,-11.71914 2.62072,-21.05355 7.85624,-28.00143 5.27702,-6.94848 12.48105,-10.42242 21.60615,-10.42242 7.32262,0 13.36451,2.73279 18.13755,8.19896 V 176.586 h 20.14759 v 106.72622 h -18.13165 l -0.97239,-7.99025 c -5.00428,6.25357 -11.44344,9.38006 -19.31747,9.38006 -8.84643,0 -15.96152,-3.47394 -21.33341,-10.42242 -5.32446,-6.99472 -7.99261,-16.69911 -7.99261,-29.11376 z m 20.08233,1.45919 c 0,7.04097 1.22736,12.43777 3.68206,16.18979 2.45471,3.75202 6.02411,5.62804 10.70228,5.62804 6.20792,0 10.5837,-2.61717 13.13327,-7.8515 v -29.66933 c -2.50214,-5.23434 -6.83641,-7.8515 -12.9969,-7.8515 -9.67652,0 -14.52071,7.8515 -14.52071,23.5545 z" />
    <path
       style="fill:#1a2e35;stroke-width:0.64934391"
       inkscape:connector-curvature="0"
       id="path14"
       d="m 932.00562,246.07729 c -0.82273,11.42456 -5.03437,20.41798 -12.6343,26.98089 -7.55186,6.56293 -17.52448,9.84406 -29.91722,9.84406 -13.5544,0 -24.22896,-4.56943 -32.02239,-13.70895 -7.74538,-9.18822 -11.61807,-21.77899 -11.61807,-37.77299 v -6.49018 c 0,-10.209 1.7909,-19.2024 5.37333,-26.98089 3.58178,-7.77785 8.68952,-13.73298 15.32127,-17.8654 6.68045,-4.18113 14.42583,-6.27137 23.23612,-6.27137 12.19923,0 22.0264,3.28179 29.48152,9.8447 7.45511,6.56292 11.76351,15.77517 12.92518,27.63673 h -21.78418 c -0.53246,-6.85448 -2.44478,-11.81286 -5.73631,-14.87582 -3.24347,-3.11101 -8.2051,-4.66683 -14.88621,-4.66683 -7.26097,0 -12.70701,2.62529 -16.33749,7.87524 -3.58243,5.2019 -5.42203,13.29596 -5.51877,24.28286 v 8.02135 c 0,11.4726 1.71816,19.85889 5.15513,25.15753 3.48569,5.29929 8.95576,7.94862 16.41087,7.94862 6.72916,0 11.7395,-1.53115 15.03102,-4.59411 3.34022,-3.11101 5.25254,-7.89992 5.73695,-14.36544 z" />
    <path
       style="fill:#1a2e35;stroke-width:0.64934391"
       inkscape:connector-curvature="0"
       id="path16"
       d="m 941.66331,241.26436 c 0,-7.82654 1.50063,-14.8031 4.50254,-20.92835 3.00128,-6.12526 7.30967,-10.86483 12.9252,-14.21934 5.66357,-3.35451 12.22325,-5.03176 19.67836,-5.03176 10.60119,0 19.24266,3.25711 25.92309,9.77132 6.7285,6.51422 10.4805,15.36218 11.2551,26.54324 l 0.1447,5.39669 c 0,12.10442 -3.3642,21.82769 -10.0927,29.16789 -6.7291,7.29212 -15.75758,10.93819 -27.08539,10.93819 -11.3278,0 -20.3803,-3.64607 -27.1575,-10.93819 -6.7285,-7.29214 -10.0934,-17.20892 -10.0934,-29.75165 z m 20.98549,1.5318 c 0,7.48629 1.40388,13.22259 4.21164,17.20891 2.80777,3.93762 6.82591,5.90644 12.05377,5.90644 5.08307,0 9.05251,-1.94414 11.90897,-5.83306 2.85582,-3.93827 4.28437,-10.20899 4.28437,-18.81409 0,-7.34084 -1.42855,-13.02844 -4.28437,-17.06346 -2.85646,-4.03503 -6.87395,-6.05253 -12.05377,-6.05253 -5.13176,0 -9.1012,2.0175 -11.90897,6.05253 -2.80776,3.98632 -4.21164,10.18496 -4.21164,18.59526 z" />
    <path
       style="fill:#1a2e35;stroke-width:0.64934391"
       inkscape:connector-curvature="0"
       id="path18"
       d="m 1073.1684,222.30481 c -2.8571,-0.38896 -5.3765,-0.5831 -7.5518,-0.5831 -7.9402,0 -13.1441,2.69802 -15.6136,8.09407 v 51.62803 h -20.9848 v -78.90047 h 19.8232 l 0.5811,9.40704 c 4.2116,-7.24343 10.0448,-10.86547 17.4992,-10.86547 2.3246,0 4.5,0.31622 6.5389,0.94804 z" />
    <path
       style="fill:#1a2e35;stroke-width:0.64934391"
       inkscape:connector-curvature="0"
       id="path20"
       d="m 1118.0446,282.90224 c -11.5258,0 -20.9154,-3.54867 -28.1751,-10.646 -7.2142,-7.09797 -10.818,-16.55307 -10.818,-28.36659 v -2.04153 c 0,-7.9246 1.5194,-14.9979 4.5714,-21.21992 3.0519,-6.27136 7.357,-11.08429 12.9284,-14.43881 5.6103,-3.40256 11.9998,-5.10448 19.1686,-5.10448 10.7467,0 19.1946,3.4032 25.3439,10.20898 6.1947,6.80578 9.2922,16.45567 9.2922,28.94969 v 8.60446 h -50.032 c 0.6753,5.1532 2.7142,9.28563 6.0973,12.39664 3.4415,3.11165 7.7726,4.66683 12.9999,4.66683 8.0843,0 14.4024,-2.94088 18.9543,-8.82329 l 10.3115,11.59469 c -3.1492,4.47268 -7.4089,7.97264 -12.779,10.50054 -5.3765,2.47919 -11.331,3.71879 -17.8634,3.71879 z m -2.3961,-64.75387 c -4.1623,0 -7.5518,1.40973 -10.1687,4.22982 -2.565,2.81945 -4.2143,6.85447 -4.935,12.10442 h 29.188 V 232.806 c -0.098,-4.66748 -1.3572,-8.26485 -3.7727,-10.79274 -2.4221,-2.5766 -5.8572,-3.86489 -10.3116,-3.86489 z" />
    <text
       id="text32"
       y="388.60379"
       x="462.22006"
       style="font-style:normal;font-weight:normal;font-size:86.94863892px;line-height:1.25;font-family:sans-serif;letter-spacing:0px;word-spacing:0px;fill:#1a2e35;fill-opacity:1;stroke:none;stroke-width:2.17371607"
       xml:space="preserve"><tspan
         style="fill:#1a2e35;fill-opacity:1;stroke-width:2.17371607"
         y="388.60379"
         x="462.22006"
         id="tspan30"
         sodipodi:role="line">Foundation</tspan></text>
  </g>
</svg>
